<svg width="43" height="43" viewBox="0 0 43 43" fill="none" xmlns="http://www.w3.org/2000/svg">
<path fill-rule="evenodd" clip-rule="evenodd" d="M39.2893 21.5C39.2893 31.3248 31.3248 39.2893 21.5 39.2893C11.6752 39.2893 3.71066 31.3248 3.71066 21.5C3.71066 11.6752 11.6752 3.71066 21.5 3.71066C31.3248 3.71066 39.2893 11.6752 39.2893 21.5ZM43 21.5C43 33.3741 33.3741 43 21.5 43C9.62588 43 0 33.3741 0 21.5C0 9.62588 9.62588 0 21.5 0C33.3741 0 43 9.62588 43 21.5ZM21.3909 28.9071L18.4583 25.9746L9.60406 17.1203L12.5366 14.1878L21.3909 23.0421L30.2451 14.1878L33.1777 17.1203L24.3234 25.9746L21.3909 28.9071Z" fill="white"/>
</svg>
