<svg width="160" height="56" viewBox="0 0 160 56" fill="none" xmlns="http://www.w3.org/2000/svg">
<path d="M47.0945 46.1051C47.481 32.8322 45.107 22.6437 39.8804 15.6789L44.1868 11.0224L46.8553 13.9078L49.0085 2.60495L38.5553 4.93319L41.2238 7.8186L36.9174 12.4552C30.4578 6.80373 21.0536 4.2367 8.76006 4.65459C9.88268 1.1324 5.72349 -0.161066 4.71129 0.276721C4.10398 0.336419 2.04279 5.55007 5.99954 7.50021L9.42259 36.1355L12.8456 32.4342L10.1771 9.19166C20.7223 8.49518 28.6911 10.6244 34.1201 15.4998L11.0237 40.4735H6.12836L0 47.0801H7.85829V55.5772L13.9683 48.9706V43.6773L37.0646 18.7036C41.5735 24.5739 43.5427 33.1704 42.8985 44.5927L21.4217 41.7073L17.9986 45.4086L44.4813 49.1099C46.2848 53.3883 51.0881 51.1396 51.1617 50.5028C51.5666 49.3885 50.352 44.8912 47.0945 46.1051Z" fill="#F2F2F2"/>
<path d="M62.4983 42.6227L70.2829 13.1516H77.6812L85.429 42.6227H81.1042L79.3191 35.6778H68.645L66.8599 42.6227H62.4983ZM69.694 31.479H78.2517L74.2949 15.9774H73.6692L69.694 31.479Z" fill="#F2F2F2"/>
<path d="M89.1281 42.6227V13.1516H100.575C102.268 13.1516 103.74 13.47 105.029 14.1068C106.317 14.7436 107.311 15.6391 108.029 16.8131C108.746 17.9872 109.096 19.4001 109.096 21.0318V21.4895C109.096 23.3401 108.691 24.8326 107.863 25.9271C107.053 27.0414 106.059 27.8175 104.882 28.2553V28.9319C105.875 28.9916 106.667 29.3498 107.256 30.0064C107.844 30.6631 108.157 31.6183 108.157 32.8521V42.6227H103.925V33.4888C103.925 32.7327 103.74 32.1357 103.372 31.678C103.004 31.2203 102.415 31.0014 101.624 31.0014H93.3241V42.6227H89.1281ZM93.3241 26.8822H100.097C101.606 26.8822 102.765 26.4643 103.593 25.6485C104.421 24.8127 104.845 23.6983 104.845 22.2656V21.9273C104.845 20.4945 104.44 19.3603 103.612 18.5444C102.802 17.7086 101.624 17.3106 100.097 17.3106H93.3241V26.8822Z" fill="#F2F2F2"/>
<path d="M123.856 43.2196C120.524 43.2196 117.893 42.2048 115.942 40.175C113.991 38.1453 113.016 35.2002 113.016 31.3596V24.4545C113.016 20.6139 113.991 17.6688 115.942 15.6391C117.893 13.6093 120.524 12.5945 123.856 12.5945C127.131 12.5945 129.653 13.5695 131.438 15.5396C133.223 17.5096 134.106 20.1761 134.106 23.5789V23.8376H129.947V23.4595C129.947 21.4696 129.45 19.8378 128.456 18.5842C127.463 17.3305 125.935 16.6937 123.874 16.6937C121.794 16.6937 120.175 17.3703 119.015 18.7434C117.856 20.0965 117.267 21.987 117.267 24.4147V31.479C117.267 33.8669 117.856 35.7375 119.015 37.1304C120.175 38.5035 121.813 39.2 123.874 39.2C125.917 39.2 127.444 38.5632 128.456 37.2896C129.45 36.0161 129.947 34.3843 129.947 32.4342V31.7178H134.106V32.3148C134.106 35.7176 133.223 38.3841 131.438 40.3541C129.653 42.2446 127.131 43.2196 123.856 43.2196Z" fill="#F2F2F2"/>
<path d="M149.013 43.2196C145.664 43.2196 142.995 42.2048 141.026 40.175C139.057 38.1453 138.063 35.2002 138.063 31.3596V24.4545C138.063 20.6139 139.057 17.6688 141.026 15.6391C142.995 13.6093 145.664 12.5945 149.013 12.5945C152.363 12.5945 155.031 13.6093 157.019 15.6391C159.006 17.6688 160 20.6139 160 24.4545V31.3596C160 35.2002 159.006 38.1453 157.019 40.175C155.031 42.2048 152.363 43.2196 149.013 43.2196ZM149.013 39.1403C151.166 39.1403 152.823 38.4637 154 37.0906C155.16 35.7375 155.749 33.8669 155.749 31.5188V24.2754C155.749 21.9273 155.16 20.0567 154 18.7036C152.841 17.3504 151.166 16.6539 149.013 16.6539C146.915 16.6539 145.259 17.3305 144.063 18.7036C142.866 20.0567 142.277 21.9273 142.277 24.2754V31.5188C142.277 33.8669 142.866 35.7375 144.063 37.0906C145.259 38.4637 146.915 39.1403 149.013 39.1403Z" fill="#F2F2F2"/>
</svg>
